# This file uses centimeters as units for non-parametric coordinates.

g default
v -0.500000 -0.500000 0.500000
v 0.500000 -0.500000 0.500000
v -0.500000 -0.500000 -0.500000
v 0.500000 -0.500000 -0.500000
v -0.500000 0.450005 0.500000
v -0.450005 0.500000 0.500000
v -0.500000 0.450005 -0.500000
v -0.450005 0.500000 -0.500000
v 0.450005 0.500000 0.500000
v 0.500000 0.450005 0.500000
v 0.500000 0.450005 -0.500000
v 0.450005 0.500000 -0.500000
vt 0.625000 0.750000
vt 0.375000 1.000000
vt 0.625000 1.000000
vt 0.375000 0.000000
vt 0.625000 0.512499
vt 0.375000 0.750000
vt 0.125000 0.000000
vt 0.375000 0.237501
vt 0.125000 0.237501
vt 0.387499 0.500000
vt 0.612501 0.250000
vt 0.625000 0.000000
vt 0.875000 0.000000
vt 0.875000 0.237501
vt 0.387499 0.250000
vt 0.375000 0.512499
vt 0.625000 0.237501
vt 0.612501 0.500000
vn 0.000000 0.000000 1.000000
vn 0.000000 0.000000 1.000000
vn 0.000000 0.000000 1.000000
vn 0.000000 0.000000 1.000000
vn 0.000000 0.000000 1.000000
vn 0.000000 0.000000 1.000000
vn 0.000000 1.000000 0.000000
vn 0.000000 1.000000 0.000000
vn 0.000000 1.000000 0.000000
vn 0.000000 1.000000 0.000000
vn 0.000000 -1.000000 0.000000
vn 0.000000 -1.000000 0.000000
vn 0.000000 -1.000000 0.000000
vn 0.000000 -1.000000 0.000000
vn 1.000000 0.000000 0.000000
vn 1.000000 0.000000 0.000000
vn 1.000000 0.000000 0.000000
vn 1.000000 0.000000 0.000000
vn -1.000000 0.000000 0.000000
vn -1.000000 0.000000 0.000000
vn -1.000000 0.000000 0.000000
vn -1.000000 0.000000 0.000000
vn 0.000000 0.000000 -1.000000
vn 0.000000 0.000000 -1.000000
vn 0.000000 0.000000 -1.000000
vn 0.000000 0.000000 -1.000000
vn 0.000000 0.000000 -1.000000
vn 0.000000 0.000000 -1.000000
vn -0.707107 0.707107 0.000000
vn -0.707107 0.707107 0.000000
vn -0.707107 0.707107 0.000000
vn -0.707107 0.707107 0.000000
vn 0.707107 0.707107 0.000000
vn 0.707107 0.707107 0.000000
vn 0.707107 0.707107 0.000000
vn 0.707107 0.707107 0.000000
g pCube1
f 1/4/1 2/12/2 10/17/3 9/11/4 6/15/5 5/8/6
f 8/10/7 6/15/8 9/11/9 12/18/10
f 3/6/11 4/1/12 2/3/13 1/2/14
f 2/12/15 4/13/16 11/14/17 10/17/18
f 3/7/19 1/4/20 5/8/21 7/9/22
f 7/16/23 8/10/24 12/18/25 11/5/26 4/1/27 3/6/28
f 5/8/29 6/15/30 8/10/31 7/16/32
f 9/11/33 10/17/34 11/5/35 12/18/36
