# This file uses centimeters as units for non-parametric coordinates.

g default
v -1.002431 -0.343433 0.509394
v 1.002431 -0.343433 0.519484
v -1.002431 0.366872 0.509394
v 1.002431 0.343433 0.519484
v -1.002431 0.366872 -0.509394
v 1.002431 0.364392 -0.519484
v -1.002431 -0.343433 -0.509394
v 1.002431 -0.343433 -0.519484
v 0.177505 0.343433 0.477772
v 0.177505 0.343433 -0.477772
v 0.177505 -0.343433 -0.477772
v 0.177505 -0.343433 0.477772
v -0.177505 0.343433 0.477772
v -0.177505 0.343433 -0.477772
v -0.177505 -0.343433 -0.477772
v -0.177505 -0.343433 0.477772
v -0.968198 0.130080 0.509394
v -0.968198 0.130080 -0.509394
v -0.177505 0.130080 -0.477772
v 0.177505 0.130080 -0.477772
v 1.013869 0.130080 -0.519484
v 1.013869 0.130080 0.519484
v 0.177505 0.130080 0.477772
v -0.177505 0.130080 0.477772
v -0.975713 -0.143494 0.509394
v -0.975713 -0.143494 -0.509394
v -0.177505 -0.143494 -0.477772
v 0.177505 -0.143494 -0.477772
v 0.976685 -0.143494 -0.519484
v 0.976685 -0.143494 0.519484
v 0.177505 -0.143494 0.477772
v -0.177505 -0.143494 0.477772
v -0.195211 0.377689 0.525429
v 0.195211 0.377689 0.525429
v 0.195211 0.377689 -0.525429
v -0.195211 0.377689 -0.525429
v -0.195211 -0.157807 -0.525429
v -0.195211 -0.377689 -0.525429
v 0.195211 -0.157807 -0.525429
v 0.195211 -0.377689 -0.525429
v -0.195211 -0.377689 0.525429
v 0.195211 -0.377689 0.525429
v -0.195211 -0.157807 0.525429
v 0.195211 -0.157807 0.525429
v -0.195211 0.143055 -0.525429
v 0.195211 0.143055 -0.525429
v -0.195211 0.143055 0.525429
v 0.195211 0.143055 0.525429
vt 0.114041 0.715848
vt 0.114041 0.334594
vt 0.449505 0.346428
vt 0.449505 0.704014
vt 0.593873 0.346428
vt 0.593873 0.704014
vt 0.929338 0.719624
vt 0.929338 0.330818
vt 0.928822 0.332471
vt 0.928822 0.713725
vt 0.593358 0.701891
vt 0.593358 0.344305
vt 0.448990 0.701891
vt 0.448990 0.344305
vt 0.113526 0.328695
vt 0.113526 0.717501
vt 0.892354 0.471421
vt 0.892354 0.443875
vt 0.899729 0.443875
vt 0.899729 0.471421
vt 0.909819 0.443875
vt 0.909819 0.471421
vt 0.918462 0.443875
vt 0.917689 0.471421
vt 0.921331 0.630170
vt 0.921331 0.657181
vt 0.913957 0.657181
vt 0.913957 0.630170
vt 0.903866 0.657181
vt 0.903866 0.630170
vt 0.895133 0.657181
vt 0.895133 0.630170
vt 0.908902 0.391455
vt 0.898815 0.391455
vt 0.898478 0.384081
vt 0.908902 0.384081
vt 0.908902 0.401545
vt 0.898910 0.401545
vt 0.907310 0.492266
vt 0.907310 0.499641
vt 0.908902 0.409415
vt 0.898478 0.410279
vt 0.907310 0.509731
vt 0.917409 0.499641
vt 0.917734 0.492266
vt 0.907310 0.517600
vt 0.917878 0.509731
vt 0.917734 0.517600
vt 0.912225 0.553347
vt 0.911887 0.560721
vt 0.901801 0.560721
vt 0.901801 0.553347
vt 0.911792 0.570812
vt 0.901801 0.570812
vt 0.915548 0.602051
vt 0.915548 0.594676
vt 0.912225 0.579546
vt 0.901801 0.578681
vt 0.915548 0.612141
vt 0.905124 0.594676
vt 0.905450 0.602051
vt 0.915548 0.620010
vt 0.904980 0.612141
vt 0.905124 0.620784
vt 0.493565 0.170808
vt 0.501468 0.170808
vt 0.501468 0.215444
vt 0.493565 0.215444
vt 0.518620 0.170808
vt 0.518620 0.215444
vt 0.510717 0.215444
vt 0.510717 0.170808
vt 0.529893 0.213419
vt 0.570480 0.213419
vt 0.572504 0.215443
vt 0.527869 0.215443
vt 0.570480 0.200812
vt 0.572504 0.201579
vt 0.529893 0.200812
vt 0.527869 0.201579
vt 0.570480 0.184647
vt 0.572504 0.183801
vt 0.529893 0.184647
vt 0.527869 0.183801
vt 0.570480 0.172832
vt 0.572504 0.170808
vt 0.529893 0.172832
vt 0.527869 0.170808
vt 0.495589 0.258833
vt 0.536176 0.258833
vt 0.538200 0.260858
vt 0.493565 0.260858
vt 0.536176 0.246226
vt 0.538200 0.246993
vt 0.495589 0.246226
vt 0.493565 0.246993
vt 0.536176 0.230061
vt 0.538200 0.229215
vt 0.495589 0.230061
vt 0.493565 0.229215
vt 0.536176 0.218247
vt 0.538200 0.216222
vt 0.495589 0.218247
vt 0.493565 0.216222
vt 0.510044 0.170808
vt 0.510044 0.183801
vt 0.502141 0.183801
vt 0.502141 0.170808
vt 0.510044 0.201579
vt 0.502141 0.201579
vt 0.510044 0.215443
vt 0.502141 0.215443
vt 0.519293 0.183801
vt 0.519293 0.170808
vt 0.527197 0.170808
vt 0.527197 0.183801
vt 0.519293 0.201579
vt 0.527197 0.201579
vt 0.519293 0.215443
vt 0.527197 0.215443
vn 0.039414 -0.001425 0.999222
vn 0.039394 -0.001475 0.999223
vn 0.038934 -0.002601 0.999238
vn 0.038934 -0.002601 0.999238
vn 0.028403 0.999597 0.000000
vn 0.028403 0.999597 0.000000
vn 0.028403 0.999597 0.000000
vn 0.028403 0.999597 0.000000
vn 0.038934 -0.002601 -0.999238
vn 0.039394 -0.001475 -0.999223
vn 0.039414 -0.001425 -0.999222
vn 0.038934 -0.002601 -0.999238
vn 0.000000 -1.000000 0.000000
vn 0.000000 -1.000000 0.000000
vn 0.000000 -1.000000 0.000000
vn 0.000000 -1.000000 0.000000
vn 0.991811 0.127716 0.000000
vn 0.991811 0.127716 0.000000
vn 0.999708 -0.024148 0.000000
vn 0.999708 -0.024148 0.000000
vn -0.991189 0.132455 0.000000
vn -0.991189 0.132455 0.000000
vn -0.997397 0.072108 0.000000
vn -0.997397 0.072108 0.000000
vn -0.012702 0.999864 0.010507
vn -0.012702 0.999864 0.010507
vn -0.012702 0.999864 0.010507
vn -0.012702 0.999864 0.010507
vn -0.051298 -0.003303 -0.998678
vn -0.051298 -0.003303 -0.998678
vn -0.051091 0.000617 -0.998694
vn -0.051091 0.000624 -0.998694
vn 0.000000 -1.000000 0.000000
vn 0.000000 -1.000000 0.000000
vn 0.000000 -1.000000 0.000000
vn 0.000000 -1.000000 0.000000
vn -0.051091 0.000624 0.998694
vn -0.051091 0.000617 0.998694
vn -0.051298 -0.003303 0.998678
vn -0.051298 -0.003303 0.998678
vn 0.000000 1.000000 0.000000
vn 0.000000 1.000000 0.000000
vn 0.000000 1.000000 0.000000
vn 0.000000 1.000000 0.000000
vn 0.000000 0.000000 -1.000000
vn 0.000000 0.000000 -1.000000
vn 0.000000 0.000000 -1.000000
vn 0.000000 0.000000 -1.000000
vn 0.000000 -1.000000 0.000000
vn 0.000000 -1.000000 0.000000
vn 0.000000 -1.000000 0.000000
vn 0.000000 -1.000000 0.000000
vn 0.000000 0.000000 1.000000
vn 0.000000 0.000000 1.000000
vn 0.000000 0.000000 1.000000
vn 0.000000 0.000000 1.000000
vn -0.998632 -0.052279 0.000000
vn -0.998632 -0.052279 0.000000
vn -0.989711 -0.143082 0.000000
vn -0.989711 -0.143082 0.000000
vn 0.039493 0.001058 -0.999219
vn 0.039482 0.001119 -0.999220
vn 0.039158 0.002978 -0.999229
vn 0.039158 0.002978 -0.999229
vn 0.000000 0.000000 -1.000000
vn 0.000000 0.000000 -1.000000
vn 0.000000 0.000000 -1.000000
vn 0.000000 0.000000 -1.000000
vn -0.050564 0.001240 -0.998720
vn -0.050576 0.001309 -0.998719
vn -0.050137 -0.001281 -0.998742
vn -0.050137 -0.001281 -0.998742
vn 0.998663 -0.051692 0.000232
vn 0.998663 -0.051692 0.000232
vn 0.998697 0.051033 0.000515
vn 0.998697 0.051033 0.000515
vn -0.050153 -0.001344 0.998741
vn -0.050153 -0.001344 0.998741
vn -0.050593 0.001338 0.998719
vn -0.050582 0.001272 0.998719
vn 0.000000 0.000000 1.000000
vn 0.000000 0.000000 1.000000
vn 0.000000 0.000000 1.000000
vn 0.000000 0.000000 1.000000
vn 0.039158 0.002978 0.999229
vn 0.039158 0.002978 0.999229
vn 0.039482 0.001119 0.999220
vn 0.039493 0.001058 0.999219
vn 0.888358 -0.459152 0.000000
vn 0.888358 -0.459152 0.000000
vn 0.888357 -0.459152 0.000000
vn 0.888357 -0.459152 0.000000
vn -0.888358 -0.459152 0.000000
vn -0.888358 -0.459152 0.000000
vn -0.888358 -0.459152 0.000000
vn -0.888358 -0.459152 0.000000
vn -0.937395 0.000000 0.348267
vn -0.937395 0.000000 0.348267
vn -0.937395 0.000000 0.348267
vn -0.937395 0.000000 0.348267
vn 0.937395 0.000000 0.348267
vn 0.937395 0.000000 0.348267
vn 0.937395 0.000000 0.348267
vn 0.937395 0.000000 0.348267
vn -0.888358 0.459152 0.000000
vn -0.888358 0.459152 0.000000
vn -0.888358 0.459152 0.000000
vn -0.888358 0.459152 0.000000
vn 0.888358 0.459152 0.000000
vn 0.888358 0.459152 0.000000
vn 0.888357 0.459152 0.000000
vn 0.888357 0.459152 0.000000
vn -0.937395 0.000000 -0.348267
vn -0.937395 0.000000 -0.348267
vn -0.937395 0.000000 -0.348267
vn -0.937395 0.000000 -0.348267
vn 0.937395 0.000000 -0.348267
vn 0.937395 0.000000 -0.348267
vn 0.937395 0.000000 -0.348267
vn 0.937395 0.000000 -0.348267
vn -0.937395 0.000000 0.348267
vn -0.937395 0.000000 0.348267
vn -0.937395 0.000000 0.348267
vn -0.937395 0.000000 0.348267
vn 0.937395 0.000000 0.348267
vn 0.937395 0.000000 0.348267
vn 0.937395 0.000000 0.348267
vn 0.937395 0.000000 0.348267
vn -0.937395 0.000000 -0.348267
vn -0.937395 0.000000 -0.348267
vn -0.937395 0.000000 -0.348267
vn -0.937395 0.000000 -0.348267
vn 0.937395 0.000000 -0.348267
vn 0.937395 0.000000 -0.348267
vn 0.937395 0.000000 -0.348267
vn 0.937395 0.000000 -0.348267
vn -0.937395 0.000000 0.348267
vn -0.937395 0.000000 0.348267
vn -0.937395 0.000000 0.348267
vn -0.937395 0.000000 0.348267
vn 0.937395 0.000000 0.348267
vn 0.937395 0.000000 0.348267
vn 0.937395 0.000000 0.348267
vn 0.937395 0.000000 0.348267
vn -0.937395 0.000000 -0.348267
vn -0.937395 0.000000 -0.348267
vn -0.937395 0.000000 -0.348267
vn -0.937395 0.000000 -0.348267
vn 0.937395 0.000000 -0.348267
vn 0.937395 0.000000 -0.348267
vn 0.937395 0.000000 -0.348267
vn 0.937395 0.000000 -0.348267
g pCube1
f 32/33/1 25/34/2 1/35/3 16/36/4
f 5/1/5 3/2/6 13/3/7 14/4/8
f 7/49/9 26/50/10 27/51/11 15/52/12
f 1/9/13 7/10/14 15/11/15 16/12/16
f 2/17/17 8/18/18 29/19/19 30/20/20
f 7/25/21 1/26/22 25/27/23 26/28/24
f 6/7/25 10/6/26 9/5/27 4/8/28
f 8/60/29 11/56/30 28/55/31 29/61/32
f 2/15/33 12/14/34 11/13/35 8/16/36
f 30/44/37 31/40/38 12/39/39 2/45/40
f 33/65/41 34/66/42 35/67/43 36/68/44
f 38/105/45 37/106/46 39/107/47 40/108/48
f 41/69/49 38/70/50 40/71/51 42/72/52
f 43/113/53 41/114/54 42/115/55 44/116/56
f 18/30/57 17/29/58 3/31/59 5/32/60
f 19/54/61 18/53/62 5/57/63 14/58/64
f 46/110/65 45/109/66 36/111/67 35/112/68
f 21/63/69 20/59/70 10/62/71 6/64/72
f 22/22/73 21/21/74 6/23/75 4/24/76
f 4/48/77 9/46/78 23/43/79 22/47/80
f 33/119/81 47/117/82 48/118/83 34/120/84
f 13/41/85 3/42/86 17/38/87 24/37/88
f 26/28/24 25/27/23 17/29/58 18/30/57
f 27/51/11 26/50/10 18/53/62 19/54/61
f 39/107/47 37/106/46 45/109/66 46/110/65
f 29/61/32 28/55/31 20/59/70 21/63/69
f 30/20/20 29/19/19 21/21/74 22/22/73
f 22/47/80 23/43/79 31/40/38 30/44/37
f 47/117/82 43/113/53 44/116/56 48/118/83
f 24/37/88 17/38/87 25/34/2 32/33/1
f 9/73/89 10/74/90 35/75/91 34/76/92
f 14/89/93 13/90/94 33/91/95 36/92/96
f 15/103/97 27/99/98 37/100/99 38/104/100
f 28/81/101 11/85/102 40/86/103 39/82/104
f 16/101/105 15/103/106 38/104/107 41/102/108
f 11/85/109 12/87/110 42/88/111 40/86/112
f 32/97/113 16/101/114 41/102/115 43/98/116
f 12/87/117 31/83/118 44/84/119 42/88/120
f 19/95/121 14/89/122 36/92/123 45/96/124
f 10/74/125 20/77/126 46/78/127 35/75/128
f 13/90/129 24/93/130 47/94/131 33/91/132
f 23/79/133 9/73/134 34/76/135 48/80/136
f 27/99/137 19/95/138 45/96/139 37/100/140
f 20/77/141 28/81/142 39/82/143 46/78/144
f 24/93/145 32/97/146 43/98/147 47/94/148
f 31/83/149 23/79/150 48/80/151 44/84/152
