# This file uses centimeters as units for non-parametric coordinates.

g default
v -0.325639 0.000000 0.000000
v 0.325639 -0.015673 0.106501
v 0.325639 0.015673 0.106501
v 0.325639 0.015673 -0.022481
v 0.325639 -0.015673 -0.022481
vt 0.375000 0.583333
vt 0.625000 0.000000
vt 0.625000 0.250000
vt 0.625000 0.500000
vt 0.625000 0.750000
vt 0.625000 1.000000
vt 0.875000 0.000000
vt 0.875000 0.250000
vn -0.161382 0.000000 0.986892
vn -0.161382 0.000000 0.986892
vn -0.161382 0.000000 0.986892
vn -0.024058 0.999711 0.000000
vn -0.024058 0.999711 0.000000
vn -0.024058 0.999711 0.000000
vn -0.034497 0.000000 -0.999405
vn -0.034497 0.000000 -0.999405
vn -0.034497 0.000000 -0.999405
vn -0.024058 -0.999711 0.000000
vn -0.024058 -0.999711 0.000000
vn -0.024058 -0.999711 0.000000
vn 1.000000 0.000000 0.000000
vn 1.000000 0.000000 0.000000
vn 1.000000 0.000000 0.000000
vn 1.000000 0.000000 0.000000
g broke_glass_01
f 1/1/1 2/2/2 3/3/3
f 1/1/4 3/3/5 4/4/6
f 1/1/7 4/4/8 5/5/9
f 1/1/10 5/5/11 2/6/12
f 2/2/13 5/7/14 4/8/15 3/3/16
