# This file uses centimeters as units for non-parametric coordinates.

g default
v 0.170485 0.295288 -0.056737
v -0.170485 0.295289 -0.056737
v -0.340970 0.000000 -0.056737
v -0.170485 -0.295288 -0.056737
v 0.170485 -0.295288 -0.056737
v 0.340970 -0.000000 -0.056737
v 0.170485 0.295288 0.056737
v -0.170485 0.295289 0.056737
v -0.340970 0.000000 0.056737
v -0.170485 -0.295288 0.056737
v 0.170485 -0.295288 0.056737
v 0.340970 0.000000 0.056737
vt 0.754191 0.059728
vt 0.245809 0.059728
vt -0.008383 0.500000
vt 0.245809 0.940272
vt 0.754191 0.940272
vt 1.008383 0.500000
vt 0.873995 0.860894
vt 0.882663 0.860894
vt 0.891332 0.860894
vt 0.900000 0.860894
vt 0.908669 0.860894
vt 0.917337 0.860894
vt 0.926005 0.860894
vt 0.873995 0.939106
vt 0.882663 0.939106
vt 0.891332 0.939106
vt 0.900000 0.939106
vt 0.908669 0.939106
vt 0.917337 0.939106
vt 0.926005 0.939106
vt 0.754191 0.059728
vt 0.245809 0.059728
vt -0.008383 0.500000
vt 0.245809 0.940272
vt 0.754191 0.940272
vt 1.008383 0.500000
vn 0.000000 1.000000 0.000000
vn 0.000000 1.000000 0.000000
vn 0.000000 1.000000 0.000000
vn 0.000000 1.000000 0.000000
vn -0.866025 0.500000 0.000000
vn -0.866025 0.500000 0.000000
vn -0.866025 0.500000 0.000000
vn -0.866025 0.500000 0.000000
vn -0.866026 -0.500000 0.000000
vn -0.866026 -0.500000 0.000000
vn -0.866026 -0.500000 0.000000
vn -0.866026 -0.500000 0.000000
vn -0.000000 -1.000000 0.000000
vn -0.000000 -1.000000 0.000000
vn -0.000000 -1.000000 0.000000
vn -0.000000 -1.000000 0.000000
vn 0.866025 -0.500000 0.000000
vn 0.866025 -0.500000 0.000000
vn 0.866025 -0.500000 0.000000
vn 0.866025 -0.500000 0.000000
vn 0.866026 0.500000 0.000000
vn 0.866026 0.500000 0.000000
vn 0.866026 0.500000 0.000000
vn 0.866026 0.500000 0.000000
vn -0.000000 0.000000 -1.000000
vn -0.000000 0.000000 -1.000000
vn -0.000000 0.000000 -1.000000
vn -0.000000 0.000000 -1.000000
vn -0.000000 0.000000 -1.000000
vn -0.000000 0.000000 -1.000000
vn -0.000000 0.000000 1.000000
vn -0.000000 0.000000 1.000000
vn -0.000000 0.000000 1.000000
vn -0.000000 0.000000 1.000000
vn -0.000000 0.000000 1.000000
vn -0.000000 0.000000 1.000000
g pCylinder1
f 1/7/1 2/8/2 8/15/3 7/14/4
f 2/8/5 3/9/6 9/16/7 8/15/8
f 3/9/9 4/10/10 10/17/11 9/16/12
f 4/10/13 5/11/14 11/18/15 10/17/16
f 5/11/17 6/12/18 12/19/19 11/18/20
f 6/12/21 1/13/22 7/20/23 12/19/24
f 1/1/25 6/6/26 5/5/27 4/4/28 3/3/29 2/2/30
f 7/25/31 8/24/32 9/23/33 10/22/34 11/21/35 12/26/36
