# This file uses centimeters as units for non-parametric coordinates.

g default
v -0.500000 -0.022452 0.163006
v 0.500000 -0.022452 0.500000
v -0.500000 0.022452 0.163006
v 0.500000 0.022452 0.500000
v -0.500000 0.022452 -0.163006
v 0.500000 0.022452 -0.500000
v -0.500000 -0.022452 -0.163006
v 0.500000 -0.022452 -0.500000
v 0.714307 -0.005997 -0.527320
v 0.714307 -0.005997 0.527320
v 0.714307 0.005997 -0.527320
v 0.714307 0.005997 0.527320
v -0.567357 0.089417 -0.051625
v -0.567357 0.051625 -0.089417
v -0.567357 -0.000000 -0.103250
v -0.567357 -0.051625 -0.089417
v -0.567357 -0.089417 -0.051625
v -0.567357 -0.103250 0.000000
v -0.567357 -0.089417 0.051625
v -0.567357 -0.051625 0.089417
v -0.567357 -0.000000 0.103250
v -0.567357 0.051625 0.089417
v -0.567357 0.089417 0.051625
v -0.567357 0.103250 0.000000
v -1.429565 0.064021 -0.036963
v -1.429565 0.036963 -0.064021
v -1.429565 -0.000000 -0.073925
v -1.429565 -0.036963 -0.064021
v -1.429565 -0.064021 -0.036963
v -1.429565 -0.073925 0.000000
v -1.429565 -0.064021 0.036963
v -1.429565 -0.036963 0.064021
v -1.429565 -0.000000 0.073925
v -1.429565 0.036963 0.064021
v -1.429565 0.064021 0.036963
v -1.429565 0.073925 0.000000
v -0.567357 -0.000000 0.000000
v -1.454865 0.000000 0.000000
v -1.385067 0.048379 0.083796
v -1.385067 0.000000 0.096759
v -1.385067 -0.048379 0.083796
v -1.385067 -0.083796 0.048379
v -1.385067 -0.096759 0.000000
v -1.385067 -0.083796 -0.048379
v -1.385067 -0.048379 -0.083796
v -1.385067 0.000000 -0.096759
v -1.385067 0.048379 -0.083796
v -1.385067 0.083796 -0.048379
v -1.385067 0.096759 0.000000
v -1.385067 0.083796 0.048379
v -1.345392 0.051625 0.089417
v -1.345392 0.000000 0.103250
v -1.345392 -0.051625 0.089417
v -1.345392 -0.089417 0.051625
v -1.345392 -0.103250 0.000000
v -1.345392 -0.089417 -0.051625
v -1.345392 -0.051625 -0.089417
v -1.345392 0.000000 -0.103250
v -1.345392 0.051625 -0.089417
v -1.345392 0.089417 -0.051625
v -1.345392 0.103250 0.000000
v -1.345392 0.089417 0.051625
v -0.396533 0.113496 -0.065527
v -0.396533 0.065527 -0.113496
v -0.396533 -0.000000 -0.131054
v -0.396533 -0.065527 -0.113496
v -0.396533 -0.113496 -0.065527
v -0.396533 -0.131054 0.000000
v -0.396533 -0.113496 0.065527
v -0.396533 -0.065527 0.113496
v -0.396533 -0.000000 0.131054
v -0.396533 0.065527 0.113496
v -0.396533 0.113496 0.065527
v -0.396533 0.131054 0.000000
v -0.658641 0.113496 -0.065527
v -0.658641 0.065527 -0.113496
v -0.658641 0.000000 -0.131054
v -0.658641 -0.065527 -0.113496
v -0.658641 -0.113496 -0.065527
v -0.658641 -0.131054 0.000000
v -0.658641 -0.113496 0.065527
v -0.658641 -0.065527 0.113496
v -0.658641 0.000000 0.131054
v -0.658641 0.065527 0.113496
v -0.658641 0.113496 0.065527
v -0.658641 0.131054 0.000000
v -0.396533 -0.000000 0.000000
v -0.658641 0.000000 0.000000
vt 0.375000 0.000000
vt 0.625000 0.000000
vt 0.375000 0.250000
vt 0.625000 0.250000
vt 0.375000 0.500000
vt 0.625000 0.500000
vt 0.375000 0.750000
vt 0.625000 0.750000
vt 0.375000 1.000000
vt 0.625000 1.000000
vt 0.875000 0.000000
vt 0.875000 0.250000
vt 0.125000 0.000000
vt 0.125000 0.250000
vt 0.625000 0.000000
vt 0.875000 0.000000
vt 0.875000 0.250000
vt 0.625000 0.250000
vt 0.375000 0.312500
vt 0.395833 0.312500
vt 0.395833 0.654933
vt 0.375000 0.654933
vt 0.416667 0.312500
vt 0.416667 0.654933
vt 0.437500 0.312500
vt 0.437500 0.654933
vt 0.458333 0.312500
vt 0.458333 0.654933
vt 0.479167 0.312500
vt 0.479167 0.654933
vt 0.500000 0.312500
vt 0.500000 0.654933
vt 0.520833 0.312500
vt 0.520833 0.654933
vt 0.541667 0.312500
vt 0.541667 0.654933
vt 0.562500 0.312500
vt 0.562500 0.654933
vt 0.583333 0.312500
vt 0.583333 0.654933
vt 0.604167 0.312500
vt 0.604167 0.654933
vt 0.625000 0.312500
vt 0.625000 0.654933
vt 0.578125 0.020934
vt 0.635316 0.078125
vt 0.500000 0.150000
vt 0.500000 0.000000
vt 0.421875 0.020934
vt 0.364684 0.078125
vt 0.343750 0.156250
vt 0.364684 0.234375
vt 0.421875 0.291566
vt 0.500000 0.312500
vt 0.578125 0.291566
vt 0.635316 0.234375
vt 0.656250 0.156250
vt 0.635316 0.921875
vt 0.578125 0.979066
vt 0.500000 0.837500
vt 0.500000 1.000000
vt 0.421875 0.979066
vt 0.364684 0.921875
vt 0.343750 0.843750
vt 0.364684 0.765625
vt 0.421875 0.708434
vt 0.500000 0.687500
vt 0.578125 0.708434
vt 0.635316 0.765625
vt 0.656250 0.843750
vt 0.541667 0.672395
vt 0.562500 0.672395
vt 0.562500 0.688440
vt 0.541667 0.688440
vt 0.520833 0.672395
vt 0.520833 0.688440
vt 0.500000 0.672395
vt 0.500000 0.688440
vt 0.479167 0.672395
vt 0.479167 0.688440
vt 0.458333 0.672395
vt 0.458333 0.688440
vt 0.437500 0.672395
vt 0.437500 0.688440
vt 0.416667 0.672395
vt 0.416667 0.688440
vt 0.395833 0.672395
vt 0.395833 0.688440
vt 0.375000 0.672395
vt 0.375000 0.688440
vt 0.604167 0.672395
vt 0.625000 0.672395
vt 0.625000 0.688440
vt 0.604167 0.688440
vt 0.583333 0.672395
vt 0.583333 0.688440
vt 0.375000 0.312500
vt 0.395833 0.312500
vt 0.395833 0.688440
vt 0.375000 0.688440
vt 0.416667 0.312500
vt 0.416667 0.688440
vt 0.437500 0.312500
vt 0.437500 0.688440
vt 0.458333 0.312500
vt 0.458333 0.688440
vt 0.479167 0.312500
vt 0.479167 0.688440
vt 0.500000 0.312500
vt 0.500000 0.688440
vt 0.520833 0.312500
vt 0.520833 0.688440
vt 0.541667 0.312500
vt 0.541667 0.688440
vt 0.562500 0.312500
vt 0.562500 0.688440
vt 0.583333 0.312500
vt 0.583333 0.688440
vt 0.604167 0.312500
vt 0.604167 0.688440
vt 0.625000 0.312500
vt 0.625000 0.688440
vt 0.578125 0.020934
vt 0.635316 0.078125
vt 0.500000 0.150000
vt 0.500000 0.000000
vt 0.421875 0.020934
vt 0.364684 0.078125
vt 0.343750 0.156250
vt 0.364684 0.234375
vt 0.421875 0.291566
vt 0.500000 0.312500
vt 0.578125 0.291566
vt 0.635316 0.234375
vt 0.656250 0.156250
vt 0.635316 0.921875
vt 0.578125 0.979066
vt 0.500000 0.837500
vt 0.500000 1.000000
vt 0.421875 0.979066
vt 0.364684 0.921875
vt 0.343750 0.843750
vt 0.364684 0.765625
vt 0.421875 0.708434
vt 0.500000 0.687500
vt 0.578125 0.708434
vt 0.635316 0.765625
vt 0.656250 0.843750
vn -0.319348 0.000000 0.947638
vn -0.319348 0.000000 0.947638
vn -0.319348 0.000000 0.947638
vn -0.319348 0.000000 0.947638
vn 0.000000 1.000000 0.000000
vn 0.000000 1.000000 0.000000
vn 0.000000 1.000000 0.000000
vn 0.000000 1.000000 0.000000
vn -0.319348 0.000000 -0.947638
vn -0.319348 0.000000 -0.947638
vn -0.319348 0.000000 -0.947638
vn -0.319348 0.000000 -0.947638
vn 0.000000 -1.000000 0.000000
vn 0.000000 -1.000000 0.000000
vn 0.000000 -1.000000 0.000000
vn 0.000000 -1.000000 0.000000
vn 1.000000 0.000000 0.000000
vn 1.000000 0.000000 0.000000
vn 1.000000 0.000000 0.000000
vn 1.000000 0.000000 0.000000
vn -1.000000 0.000000 0.000000
vn -1.000000 0.000000 0.000000
vn -1.000000 0.000000 0.000000
vn -1.000000 0.000000 0.000000
vn 0.076560 -0.997065 0.000000
vn 0.076560 -0.997065 0.000000
vn 0.076560 -0.997065 0.000000
vn 0.076560 -0.997065 0.000000
vn -0.126457 0.000000 -0.991972
vn -0.126457 0.000000 -0.991972
vn -0.126457 0.000000 -0.991972
vn -0.126457 0.000000 -0.991972
vn 0.076560 0.997065 0.000000
vn 0.076560 0.997065 0.000000
vn 0.076560 0.997065 0.000000
vn 0.076560 0.997065 0.000000
vn -0.126457 0.000000 0.991972
vn -0.126457 0.000000 0.991972
vn -0.126457 0.000000 0.991972
vn -0.126457 0.000000 0.991972
vn 0.000000 0.707107 -0.707107
vn 0.000000 0.707107 -0.707107
vn -0.007249 0.707088 -0.707088
vn -0.007249 0.707088 -0.707088
vn 0.000000 0.258819 -0.965926
vn 0.000000 0.258819 -0.965926
vn -0.007249 0.258812 -0.965900
vn -0.007249 0.258812 -0.965900
vn -0.000000 -0.258819 -0.965926
vn -0.000000 -0.258819 -0.965926
vn -0.007249 -0.258812 -0.965900
vn -0.007249 -0.258812 -0.965900
vn 0.000000 -0.707107 -0.707107
vn 0.000000 -0.707107 -0.707107
vn -0.007249 -0.707088 -0.707088
vn -0.007249 -0.707088 -0.707088
vn 0.000000 -0.965926 -0.258819
vn 0.000000 -0.965926 -0.258819
vn -0.007249 -0.965900 -0.258812
vn -0.007249 -0.965900 -0.258812
vn 0.000000 -0.965926 0.258819
vn 0.000000 -0.965926 0.258819
vn -0.007249 -0.965900 0.258812
vn -0.007249 -0.965900 0.258812
vn 0.000000 -0.707107 0.707107
vn 0.000000 -0.707107 0.707107
vn -0.007249 -0.707088 0.707088
vn -0.007249 -0.707088 0.707088
vn 0.000000 -0.258819 0.965926
vn 0.000000 -0.258819 0.965926
vn -0.007249 -0.258812 0.965900
vn -0.007249 -0.258812 0.965900
vn 0.000000 0.258819 0.965926
vn 0.000000 0.258819 0.965926
vn -0.007249 0.258812 0.965900
vn -0.007249 0.258812 0.965900
vn 0.000000 0.707107 0.707107
vn 0.000000 0.707107 0.707107
vn -0.007249 0.707088 0.707088
vn -0.007249 0.707088 0.707088
vn 0.000000 0.965926 0.258819
vn 0.000000 0.965926 0.258819
vn -0.007249 0.965900 0.258812
vn -0.007249 0.965900 0.258812
vn 0.000000 0.965926 -0.258819
vn 0.000000 0.965926 -0.258819
vn -0.007249 0.965900 -0.258812
vn -0.007249 0.965900 -0.258812
vn 1.000000 0.000000 0.000000
vn 1.000000 0.000000 0.000000
vn 1.000000 0.000000 0.000000
vn 1.000000 0.000000 0.000000
vn 1.000000 0.000000 0.000000
vn 1.000000 0.000000 0.000000
vn 1.000000 0.000000 0.000000
vn 1.000000 0.000000 0.000000
vn 1.000000 0.000000 0.000000
vn 1.000000 0.000000 0.000000
vn 1.000000 0.000000 0.000000
vn 1.000000 0.000000 0.000000
vn 1.000000 0.000000 0.000000
vn -0.946125 0.280422 -0.161900
vn -0.946125 0.161902 -0.280420
vn -1.000000 -0.000000 0.000000
vn -0.946125 0.000000 -0.323801
vn -0.946125 -0.161901 -0.280420
vn -0.946125 -0.280421 -0.161900
vn -0.946125 -0.323802 0.000000
vn -0.946125 -0.280422 0.161900
vn -0.946125 -0.161902 0.280420
vn -0.946125 0.000000 0.323801
vn -0.946125 0.161901 0.280420
vn -0.946125 0.280421 0.161900
vn -0.946125 0.323802 0.000000
vn -0.299866 0.246909 0.921475
vn -0.299866 0.246909 0.921475
vn -0.444092 0.231898 0.865451
vn -0.444092 0.231898 0.865451
vn -0.299866 -0.246908 0.921475
vn -0.299866 -0.246909 0.921475
vn -0.444092 -0.231897 0.865451
vn -0.444092 -0.231897 0.865451
vn -0.299866 -0.674567 0.674567
vn -0.299866 -0.674567 0.674567
vn -0.444093 -0.633554 0.633555
vn -0.444093 -0.633554 0.633555
vn -0.299865 -0.921476 0.246908
vn -0.299865 -0.921476 0.246908
vn -0.444092 -0.865452 0.231897
vn -0.444092 -0.865452 0.231897
vn -0.299865 -0.921476 -0.246908
vn -0.299865 -0.921476 -0.246908
vn -0.444092 -0.865452 -0.231897
vn -0.444092 -0.865452 -0.231897
vn -0.299866 -0.674566 -0.674567
vn -0.299866 -0.674566 -0.674567
vn -0.444093 -0.633553 -0.633555
vn -0.444093 -0.633553 -0.633555
vn -0.299866 -0.246909 -0.921475
vn -0.299866 -0.246909 -0.921475
vn -0.444092 -0.231898 -0.865451
vn -0.444092 -0.231898 -0.865451
vn -0.299866 0.246908 -0.921475
vn -0.299866 0.246909 -0.921475
vn -0.444092 0.231897 -0.865451
vn -0.444092 0.231897 -0.865451
vn -0.299866 0.674567 -0.674567
vn -0.299866 0.674567 -0.674567
vn -0.444093 0.633554 -0.633555
vn -0.444093 0.633554 -0.633555
vn -0.299865 0.921476 -0.246908
vn -0.299865 0.921476 -0.246908
vn -0.444092 0.865452 -0.231897
vn -0.444092 0.865452 -0.231897
vn -0.299865 0.921476 0.246908
vn -0.299865 0.921476 0.246908
vn -0.444092 0.865452 0.231897
vn -0.444092 0.865452 0.231897
vn -0.299866 0.674566 0.674567
vn -0.299866 0.674566 0.674567
vn -0.444093 0.633553 0.633555
vn -0.444093 0.633553 0.633555
vn 0.000000 0.707107 -0.707107
vn 0.000000 0.707107 -0.707107
vn 0.000000 0.707107 -0.707107
vn 0.000000 0.707107 -0.707107
vn 0.000000 0.258819 -0.965926
vn 0.000000 0.258819 -0.965926
vn 0.000000 0.258819 -0.965926
vn 0.000000 0.258819 -0.965926
vn -0.000000 -0.258819 -0.965926
vn -0.000000 -0.258819 -0.965926
vn -0.000000 -0.258819 -0.965926
vn -0.000000 -0.258819 -0.965926
vn 0.000000 -0.707107 -0.707107
vn 0.000000 -0.707107 -0.707107
vn 0.000000 -0.707107 -0.707107
vn 0.000000 -0.707107 -0.707107
vn 0.000000 -0.965926 -0.258819
vn 0.000000 -0.965926 -0.258819
vn 0.000000 -0.965926 -0.258819
vn 0.000000 -0.965926 -0.258819
vn 0.000000 -0.965926 0.258819
vn 0.000000 -0.965926 0.258819
vn 0.000000 -0.965926 0.258819
vn 0.000000 -0.965926 0.258819
vn 0.000000 -0.707107 0.707107
vn 0.000000 -0.707107 0.707107
vn 0.000000 -0.707107 0.707107
vn 0.000000 -0.707107 0.707107
vn 0.000000 -0.258819 0.965926
vn 0.000000 -0.258819 0.965926
vn 0.000000 -0.258819 0.965926
vn 0.000000 -0.258819 0.965926
vn 0.000000 0.258819 0.965926
vn 0.000000 0.258819 0.965926
vn 0.000000 0.258819 0.965926
vn 0.000000 0.258819 0.965926
vn 0.000000 0.707107 0.707107
vn 0.000000 0.707107 0.707107
vn 0.000000 0.707107 0.707107
vn 0.000000 0.707107 0.707107
vn 0.000000 0.965926 0.258819
vn 0.000000 0.965926 0.258819
vn 0.000000 0.965926 0.258819
vn 0.000000 0.965926 0.258819
vn 0.000000 0.965926 -0.258819
vn 0.000000 0.965926 -0.258819
vn 0.000000 0.965926 -0.258819
vn 0.000000 0.965926 -0.258819
vn 1.000000 -0.000000 0.000000
vn 1.000000 -0.000000 0.000000
vn 1.000000 0.000000 0.000000
vn 1.000000 0.000000 0.000000
vn 1.000000 0.000000 0.000000
vn 1.000000 0.000000 0.000000
vn 1.000000 0.000000 0.000000
vn 1.000000 0.000000 0.000000
vn 1.000000 0.000000 0.000000
vn 1.000000 0.000000 0.000000
vn 1.000000 -0.000000 0.000000
vn 1.000000 -0.000000 0.000000
vn 1.000000 0.000000 0.000000
vn -1.000000 0.000000 0.000000
vn -1.000000 0.000000 0.000000
vn -1.000000 0.000000 0.000000
vn -1.000000 0.000000 0.000000
vn -1.000000 0.000000 0.000000
vn -1.000000 0.000000 0.000000
vn -1.000000 0.000000 0.000000
vn -1.000000 -0.000000 0.000000
vn -1.000000 -0.000000 0.000000
vn -1.000000 0.000000 0.000000
vn -1.000000 0.000000 0.000000
vn -1.000000 0.000000 0.000000
vn -1.000000 0.000000 0.000000
g pCube2
f 1/1/1 2/2/2 4/4/3 3/3/4
f 3/3/5 4/4/6 6/6/7 5/5/8
f 5/5/9 6/6/10 8/8/11 7/7/12
f 7/7/13 8/8/14 2/10/15 1/9/16
f 10/15/17 9/16/18 11/17/19 12/18/20
f 7/13/21 1/1/22 3/3/23 5/14/24
f 2/2/25 8/11/26 9/16/27 10/15/28
f 8/11/29 6/12/30 11/17/31 9/16/32
f 6/12/33 4/4/34 12/18/35 11/17/36
f 4/4/37 2/2/38 10/15/39 12/18/40
f 13/19/41 14/20/42 59/21/43 60/22/44
f 14/20/45 15/23/46 58/24/47 59/21/48
f 15/23/49 16/25/50 57/26/51 58/24/52
f 16/25/53 17/27/54 56/28/55 57/26/56
f 17/27/57 18/29/58 55/30/59 56/28/60
f 18/29/61 19/31/62 54/32/63 55/30/64
f 19/31/65 20/33/66 53/34/67 54/32/68
f 20/33/69 21/35/70 52/36/71 53/34/72
f 21/35/73 22/37/74 51/38/75 52/36/76
f 22/37/77 23/39/78 62/40/79 51/38/80
f 23/39/81 24/41/82 61/42/83 62/40/84
f 24/41/85 13/43/86 60/44/87 61/42/88
f 14/45/89 13/46/90 37/47/91
f 15/48/92 14/45/89 37/47/91
f 16/49/93 15/48/92 37/47/91
f 17/50/94 16/49/93 37/47/91
f 18/51/95 17/50/94 37/47/91
f 19/52/96 18/51/95 37/47/91
f 20/53/97 19/52/96 37/47/91
f 21/54/98 20/53/97 37/47/91
f 22/55/99 21/54/98 37/47/91
f 23/56/100 22/55/99 37/47/91
f 24/57/101 23/56/100 37/47/91
f 13/46/90 24/57/101 37/47/91
f 25/58/102 26/59/103 38/60/104
f 26/59/103 27/61/105 38/60/104
f 27/61/105 28/62/106 38/60/104
f 28/62/106 29/63/107 38/60/104
f 29/63/107 30/64/108 38/60/104
f 30/64/108 31/65/109 38/60/104
f 31/65/109 32/66/110 38/60/104
f 32/66/110 33/67/111 38/60/104
f 33/67/111 34/68/112 38/60/104
f 34/68/112 35/69/113 38/60/104
f 35/69/113 36/70/114 38/60/104
f 36/70/114 25/58/102 38/60/104
f 40/71/115 39/72/116 34/73/117 33/74/118
f 41/75/119 40/71/120 33/74/121 32/76/122
f 42/77/123 41/75/124 32/76/125 31/78/126
f 43/79/127 42/77/128 31/78/129 30/80/130
f 44/81/131 43/79/132 30/80/133 29/82/134
f 45/83/135 44/81/136 29/82/137 28/84/138
f 46/85/139 45/83/140 28/84/141 27/86/142
f 47/87/143 46/85/144 27/86/145 26/88/146
f 48/89/147 47/87/148 26/88/149 25/90/150
f 49/91/151 48/92/152 25/93/153 36/94/154
f 50/95/155 49/91/156 36/94/157 35/96/158
f 39/72/159 50/95/160 35/96/161 34/73/162
f 52/36/76 51/38/75 39/72/116 40/71/115
f 53/34/72 52/36/71 40/71/120 41/75/119
f 54/32/68 53/34/67 41/75/124 42/77/123
f 55/30/64 54/32/63 42/77/128 43/79/127
f 56/28/60 55/30/59 43/79/132 44/81/131
f 57/26/56 56/28/55 44/81/136 45/83/135
f 58/24/52 57/26/51 45/83/140 46/85/139
f 59/21/48 58/24/47 46/85/144 47/87/143
f 60/22/44 59/21/43 47/87/148 48/89/147
f 61/42/88 60/44/87 48/92/152 49/91/151
f 62/40/84 61/42/83 49/91/156 50/95/155
f 51/38/80 62/40/79 50/95/160 39/72/159
f 63/97/163 64/98/164 76/99/165 75/100/166
f 64/98/167 65/101/168 77/102/169 76/99/170
f 65/101/171 66/103/172 78/104/173 77/102/174
f 66/103/175 67/105/176 79/106/177 78/104/178
f 67/105/179 68/107/180 80/108/181 79/106/182
f 68/107/183 69/109/184 81/110/185 80/108/186
f 69/109/187 70/111/188 82/112/189 81/110/190
f 70/111/191 71/113/192 83/114/193 82/112/194
f 71/113/195 72/115/196 84/116/197 83/114/198
f 72/115/199 73/117/200 85/118/201 84/116/202
f 73/117/203 74/119/204 86/120/205 85/118/206
f 74/119/207 63/121/208 75/122/209 86/120/210
f 64/123/211 63/124/212 87/125/213
f 65/126/214 64/123/211 87/125/213
f 66/127/215 65/126/214 87/125/213
f 67/128/216 66/127/215 87/125/213
f 68/129/217 67/128/216 87/125/213
f 69/130/218 68/129/217 87/125/213
f 70/131/219 69/130/218 87/125/213
f 71/132/220 70/131/219 87/125/213
f 72/133/221 71/132/220 87/125/213
f 73/134/222 72/133/221 87/125/213
f 74/135/223 73/134/222 87/125/213
f 63/124/212 74/135/223 87/125/213
f 75/136/224 76/137/225 88/138/226
f 76/137/225 77/139/227 88/138/226
f 77/139/227 78/140/228 88/138/226
f 78/140/228 79/141/229 88/138/226
f 79/141/229 80/142/230 88/138/226
f 80/142/230 81/143/231 88/138/226
f 81/143/231 82/144/232 88/138/226
f 82/144/232 83/145/233 88/138/226
f 83/145/233 84/146/234 88/138/226
f 84/146/234 85/147/235 88/138/226
f 85/147/235 86/148/236 88/138/226
f 86/148/236 75/136/224 88/138/226
